<svg xmlns="http://www.w3.org/2000/svg" style="display: none;">
  <!-- Theme Icons -->
  <symbol id="sun" viewBox="0 0 24 24">
    <circle cx="12" cy="12" r="5"/>
    <path d="M12 1v2M12 21v2M4.22 4.22l1.42 1.42M18.36 18.36l1.42 1.42M1 12h2M21 12h2M4.22 19.78l1.42-1.42M18.36 5.64l1.42-1.42"/>
  </symbol>
  
  <symbol id="moon" viewBox="0 0 24 24">
    <path d="M21 12.79A9 9 0 1 1 11.21 3 7 7 0 0 0 21 12.79z"/>
  </symbol>
  
  <!-- Navigation Icons -->
  <symbol id="menu" viewBox="0 0 24 24">
    <line x1="3" y1="6" x2="21" y2="6"/>
    <line x1="3" y1="12" x2="21" y2="12"/>
    <line x1="3" y1="18" x2="21" y2="18"/>
  </symbol>
  
  <symbol id="close" viewBox="0 0 24 24">
    <line x1="18" y1="6" x2="6" y2="18"/>
    <line x1="6" y1="6" x2="18" y2="18"/>
  </symbol>
  
  <!-- Communication Icons -->
  <symbol id="send" viewBox="0 0 24 24">
    <line x1="22" y1="2" x2="11" y2="13"/>
    <polygon points="22,2 15,22 11,13 2,9 22,2"/>
  </symbol>
  
  <symbol id="message-circle" viewBox="0 0 24 24">
    <path d="M21 11.5a8.38 8.38 0 0 1-.9 3.8 8.5 8.5 0 0 1-7.6 4.7 8.38 8.38 0 0 1-3.8-.9L3 21l1.9-5.7a8.38 8.38 0 0 1-.9-3.8 8.5 8.5 0 0 1 4.7-7.6 8.38 8.38 0 0 1 3.8-.9h.5a8.48 8.48 0 0 1 8 8v.5z"/>
  </symbol>
  
  <!-- Audio Icons -->
  <symbol id="volume-2" viewBox="0 0 24 24">
    <polygon points="11,5 6,9 2,9 2,15 6,15 11,19 11,5"/>
    <path d="M19.07 4.93a10 10 0 0 1 0 14.14M15.54 8.46a5 5 0 0 1 0 7.07"/>
  </symbol>
  
  <symbol id="volume-x" viewBox="0 0 24 24">
    <polygon points="11,5 6,9 2,9 2,15 6,15 11,19 11,5"/>
    <line x1="23" y1="9" x2="17" y2="15"/>
    <line x1="17" y1="9" x2="23" y2="15"/>
  </symbol>
  
  <symbol id="play" viewBox="0 0 24 24">
    <polygon points="5,3 19,12 5,21 5,3"/>
  </symbol>
  
  <symbol id="pause" viewBox="0 0 24 24">
    <rect x="6" y="4" width="4" height="16"/>
    <rect x="14" y="4" width="4" height="16"/>
  </symbol>
  
  <symbol id="stop" viewBox="0 0 24 24">
    <rect x="3" y="3" width="18" height="18" rx="2" ry="2"/>
  </symbol>
  
  <!-- Action Icons -->
  <symbol id="copy" viewBox="0 0 24 24">
    <rect x="9" y="9" width="13" height="13" rx="2" ry="2"/>
    <path d="M5 15H4a2 2 0 0 1-2-2V4a2 2 0 0 1 2-2h9a2 2 0 0 1 2 2v1"/>
  </symbol>
  
  <symbol id="check" viewBox="0 0 24 24">
    <polyline points="20,6 9,17 4,12"/>
  </symbol>
  
  <symbol id="check-circle" viewBox="0 0 24 24">
    <path d="M9 12l2 2 4-4"/>
    <circle cx="12" cy="12" r="10"/>
  </symbol>
  
  <symbol id="heart" viewBox="0 0 24 24">
    <path d="M20.84 4.61a5.5 5.5 0 0 0-7.78 0L12 5.67l-1.06-1.06a5.5 5.5 0 0 0-7.78 7.78l1.06 1.06L12 21.23l7.78-7.78 1.06-1.06a5.5 5.5 0 0 0 0-7.78z"/>
  </symbol>
  
  <symbol id="thumbs-up" viewBox="0 0 24 24">
    <path d="M14 9V5a3 3 0 0 0-3-3l-4 9v11h11.28a2 2 0 0 0 2-1.7l1.38-9a2 2 0 0 0-2-2.3zM7 22H4a2 2 0 0 1-2-2v-7a2 2 0 0 1 2-2h3"/>
  </symbol>
  
  <symbol id="thumbs-down" viewBox="0 0 24 24">
    <path d="M10 15v4a3 3 0 0 0 3 3l4-9V2H5.72a2 2 0 0 0-2 1.7l-1.38 9a2 2 0 0 0 2 2.3zm7-13h2.67A2.31 2.31 0 0 1 22 4v7a2.31 2.31 0 0 1-2.33 2H17"/>
  </symbol>
  
  <!-- Utility Icons -->
  <symbol id="trash-2" viewBox="0 0 24 24">
    <polyline points="3,6 5,6 21,6"/>
    <path d="M19,6v14a2,2 0 01-2,2H7a2,2 0 01-2-2V6M8,6V4a2,2 0 012-2h4a2,2 0 012,2v2"/>
    <line x1="10" y1="11" x2="10" y2="17"/>
    <line x1="14" y1="11" x2="14" y2="17"/>
  </symbol>
  
  <symbol id="refresh-cw" viewBox="0 0 24 24">
    <polyline points="23,4 23,10 17,10"/>
    <polyline points="1,20 1,14 7,14"/>
    <path d="M20.49 9A9 9 0 0 0 5.64 5.64L1 10m22 4l-4.64 4.36A9 9 0 0 1 3.51 15"/>
  </symbol>
  
  <symbol id="settings" viewBox="0 0 24 24">
    <circle cx="12" cy="12" r="3"/>
    <path d="M19.4 15a1.65 1.65 0 0 0 .33 1.82l.06.06a2 2 0 0 1 0 2.83 2 2 0 0 1-2.83 0l-.06-.06a1.65 1.65 0 0 0-1.82-.33 1.65 1.65 0 0 0-1 1.51V21a2 2 0 0 1-2 2 2 2 0 0 1-2-2v-.09A1.65 1.65 0 0 0 9 19.4a1.65 1.65 0 0 0-1.82.33l-.06.06a2 2 0 0 1-2.83 0 2 2 0 0 1 0-2.83l.06-.06a1.65 1.65 0 0 0 .33-1.82 1.65 1.65 0 0 0-1.51-1H3a2 2 0 0 1-2-2 2 2 0 0 1 2-2h.09A1.65 1.65 0 0 0 4.6 9a1.65 1.65 0 0 0-.33-1.82l-.06-.06a2 2 0 0 1 0-2.83 2 2 0 0 1 2.83 0l.06.06a1.65 1.65 0 0 0 1.82.33H9a1.65 1.65 0 0 0 1 1.51V3a2 2 0 0 1 2-2 2 2 0 0 1 2 2v.09a1.65 1.65 0 0 0 1 1.51 1.65 1.65 0 0 0 1.82-.33l.06-.06a2 2 0 0 1 2.83 0 2 2 0 0 1 0 2.83l-.06.06a1.65 1.65 0 0 0-.33 1.82V9a1.65 1.65 0 0 0 1.51 1H21a2 2 0 0 1 2 2 2 2 0 0 1-2 2h-.09a1.65 1.65 0 0 0-1.51 1z"/>
  </symbol>
  
  <!-- Spiritual Icons -->
  <symbol id="lotus" viewBox="0 0 100 100">
    <path d="M50 20 C30 25, 20 40, 25 55 C30 40, 45 30, 50 35 C55 30, 70 40, 75 55 C80 40, 70 25, 50 20 Z" opacity="0.8"/>
    <path d="M50 35 C35 40, 25 55, 30 70 C35 55, 45 45, 50 50 C55 45, 65 55, 70 70 C75 55, 65 40, 50 35 Z" opacity="0.6"/>
    <circle cx="50" cy="50" r="8"/>
  </symbol>
  
  <symbol id="om" viewBox="0 0 100 100">
    <path d="M30 40 Q20 30, 35 25 Q50 20, 55 35 Q60 50, 45 55 Q35 60, 30 50 Q25 40, 30 40 Z"/>
    <path d="M60 35 Q70 25, 75 40 Q80 55, 65 60 Q50 65, 55 50 Q60 35, 60 35 Z"/>
    <circle cx="70" cy="75" r="5"/>
    <path d="M20 70 Q40 75, 60 70 Q80 65, 75 80"/>
  </symbol>
  
  <!-- Status Icons -->
  <symbol id="info" viewBox="0 0 24 24">
    <circle cx="12" cy="12" r="10"/>
    <line x1="12" y1="16" x2="12" y2="12"/>
    <line x1="12" y1="8" x2="12.01" y2="8"/>
  </symbol>
  
  <symbol id="alert-circle" viewBox="0 0 24 24">
    <circle cx="12" cy="12" r="10"/>
    <line x1="12" y1="8" x2="12" y2="12"/>
    <line x1="12" y1="16" x2="12.01" y2="16"/>
  </symbol>
  
  <symbol id="check-square" viewBox="0 0 24 24">
    <polyline points="9,11 12,14 22,4"/>
    <path d="M21 12v7a2 2 0 0 1-2 2H5a2 2 0 0 1-2-2V5a2 2 0 0 1 2-2h11"/>
  </symbol>
  
  <!-- Navigation Arrows -->
  <symbol id="chevron-up" viewBox="0 0 24 24">
    <polyline points="18,15 12,9 6,15"/>
  </symbol>
  
  <symbol id="chevron-down" viewBox="0 0 24 24">
    <polyline points="6,9 12,15 18,9"/>
  </symbol>
  
  <symbol id="chevron-left" viewBox="0 0 24 24">
    <polyline points="15,18 9,12 15,6"/>
  </symbol>
  
  <symbol id="chevron-right" viewBox="0 0 24 24">
    <polyline points="9,18 15,12 9,6"/>
  </symbol>
  
  <!-- Loading -->
  <symbol id="loader" viewBox="0 0 24 24">
    <line x1="12" y1="2" x2="12" y2="6"/>
    <line x1="12" y1="18" x2="12" y2="22"/>
    <line x1="4.93" y1="4.93" x2="7.76" y2="7.76"/>
    <line x1="16.24" y1="16.24" x2="19.07" y2="19.07"/>
    <line x1="2" y1="12" x2="6" y2="12"/>
    <line x1="18" y1="12" x2="22" y2="12"/>
    <line x1="4.93" y1="19.07" x2="7.76" y2="16.24"/>
    <line x1="16.24" y1="7.76" x2="19.07" y2="4.93"/>
  </symbol>
  
  <!-- User -->
  <symbol id="user" viewBox="0 0 24 24">
    <path d="M20 21v-2a4 4 0 0 0-4-4H8a4 4 0 0 0-4 4v2"/>
    <circle cx="12" cy="7" r="4"/>
  </symbol>
  
  <!-- Star -->
  <symbol id="star" viewBox="0 0 24 24">
    <polygon points="12,2 15.09,8.26 22,9.27 17,14.14 18.18,21.02 12,17.77 5.82,21.02 7,14.14 2,9.27 8.91,8.26 12,2"/>
  </symbol>
  
  <!-- Book -->
  <symbol id="book" viewBox="0 0 24 24">
    <path d="M4 19.5A2.5 2.5 0 0 1 6.5 17H20"/>
    <path d="M6.5 2H20v20H6.5A2.5 2.5 0 0 1 4 19.5v-15A2.5 2.5 0 0 1 6.5 2z"/>
  </symbol>
  
  <!-- Quote -->
  <symbol id="quote" viewBox="0 0 24 24">
    <path d="M3 21c3 0 7-1 7-8V5c0-1.25-.756-2.017-2-2H4c-1.25 0-2 .75-2 1.972V11c0 1.25.75 2 2 2 1 0 1 0 1 1v1c0 1-1 2-2 2s-1 .008-1 1.031V20c0 1 0 1 1 1z"/>
    <path d="M15 21c3 0 7-1 7-8V5c0-1.25-.757-2.017-2-2h-4c-1.25 0-2 .75-2 1.972V11c0 1.25.75 2 2 2h.75c0 2.25.25 4-2.75 4v3c0 1 0 1 1 1z"/>
  </symbol>
</svg>
